<svg xmlns="http://www.w3.org/2000/svg" width="480.32" height="870.768" viewBox="0 0 480.32 870.768">
<rect width="100%" height="100%" fill="#ffffff"/>
<g transform="translate(0,52)">
<polygon points="90.92,80.544 98.76,80.5297 106.6,80.5154 114.44,80.5011 122.28,80.4867 130.12,80.4724 137.96,80.4581 145.8,80.4438 153.64,80.4295 161.48,80.4152 169.32,80.4008 177.16,80.3865 185,80.3722 192.84,80.3579 200.68,80.3436 208.52,80.3293 216.36,80.3149 224.2,80.3006 232.04,80.2863 239.88,80.272 247.72,80.2577 255.56,80.2434 263.4,80.2291 271.24,80.2147 279.08,80.2004 286.92,80.1861 294.76,80.1718 302.6,80.1575 310.44,80.1432 318.28,80.1288 326.12,80.1145 333.96,80.1002 341.8,80.0859 349.64,80.0716 357.48,80.0573 365.32,80.0429 373.16,80.0286 381,80.0143 388.84,80 399.12,85.28 399.1322,91.6477 399.1445,98.0153 399.1567,104.383 399.169,110.7507 399.1812,117.1184 399.1935,123.486 399.2057,129.8537 399.218,136.2214 399.2302,142.5891 399.2424,148.9567 399.2547,155.3244 399.2669,161.6921 399.2792,168.0598 399.2914,174.4274 399.3037,180.7951 399.3159,187.1628 399.3282,193.5304 399.3404,199.8981 399.3527,206.2658 399.3649,212.6335 399.3771,219.0011 399.3894,225.3688 399.4016,231.7365 399.4139,238.1042 399.4261,244.4718 399.4384,250.8395 399.4506,257.2072 399.4629,263.5749 399.4751,269.9425 399.4873,276.3102 399.4996,282.6779 399.5118,289.0456 399.5241,295.4132 399.5363,301.7809 399.5486,308.1486 399.5608,314.5162 399.5731,320.8839 399.5853,327.2516 399.5976,333.6193 399.6098,339.9869 399.622,346.3546 399.6343,352.7223 399.6465,359.09 399.6588,365.4576 399.671,371.8253 399.6833,378.193 399.6955,384.5607 399.7078,390.9283 399.72,397.296 399.7322,403.6637 399.7445,410.0313 399.7567,416.399 399.769,422.7667 399.7812,429.1344 399.7935,435.502 399.8057,441.8697 399.818,448.2374 399.8302,454.6051 399.8424,460.9727 399.8547,467.3404 399.8669,473.7081 399.8792,480.0758 399.8914,486.4434 399.9037,492.8111 399.9159,499.1788 399.9282,505.5464 399.9404,511.9141 399.9527,518.2818 399.9649,524.6495 399.9771,531.0171 399.9894,537.3848 400.0016,543.7525 400.0139,550.1202 400.0261,556.4878 400.0384,562.8555 400.0506,569.2232 400.0629,575.5909 400.0751,581.9585 400.0873,588.3262 400.0996,594.6939 400.1118,601.0616 400.1241,607.4292 400.1363,613.7969 400.1486,620.1646 400.1608,626.5322 400.1731,632.8999 400.1853,639.2676 400.1976,645.6353 400.2098,652.0029 400.222,658.3706 400.2343,664.7383 400.2465,671.106 400.2588,677.4736 400.271,683.8413 400.2833,690.209 400.2955,696.5767 400.3078,702.9443 400.32,709.312 395.04,719.584 387.0516,719.6152 379.0632,719.6463 371.0747,719.6775 363.0863,719.7086 355.0979,719.7398 347.1095,719.7709 339.1211,719.8021 331.1326,719.8333 323.1442,719.8644 315.1558,719.8956 307.1674,719.9267 299.1789,719.9579 291.1905,719.9891 283.2021,720.0202 275.2137,720.0514 267.2253,720.0825 259.2368,720.1137 251.2484,720.1448 243.26,720.176 235.2716,720.2072 227.2832,720.2383 219.2947,720.2695 211.3063,720.3006 203.3179,720.3318 195.3295,720.3629 187.3411,720.3941 179.3526,720.4253 171.3642,720.4564 163.3758,720.4876 155.3874,720.5187 147.3989,720.5499 139.4105,720.5811 131.4221,720.6122 123.4337,720.6434 115.4453,720.6745 107.4568,720.7057 99.4684,720.7368 91.48,720.768 81.2,715.488 81.1876,709.0953 81.1753,702.7025 81.1629,696.3098 81.1505,689.917 81.1381,683.5243 81.1258,677.1315 81.1134,670.7388 81.101,664.3461 81.0887,657.9533 81.0763,651.5606 81.0639,645.1678 81.0515,638.7751 81.0392,632.3824 81.0268,625.9896 81.0144,619.5969 81.0021,613.2041 80.9897,606.8114 80.9773,600.4186 80.9649,594.0259 80.9526,587.6332 80.9402,581.2404 80.9278,574.8477 80.9155,568.4549 80.9031,562.0622 80.8907,555.6694 80.8784,549.2767 80.866,542.884 80.8536,536.4912 80.8412,530.0985 80.8289,523.7057 80.8165,517.313 80.8041,510.9202 80.7918,504.5275 80.7794,498.1348 80.767,491.742 80.7546,485.3493 80.7423,478.9565 80.7299,472.5638 80.7175,466.1711 80.7052,459.7783 80.6928,453.3856 80.6804,446.9928 80.668,440.6001 80.6557,434.2073 80.6433,427.8146 80.6309,421.4219 80.6186,415.0291 80.6062,408.6364 80.5938,402.2436 80.5814,395.8509 80.5691,389.4581 80.5567,383.0654 80.5443,376.6727 80.532,370.2799 80.5196,363.8872 80.5072,357.4944 80.4948,351.1017 80.4825,344.7089 80.4701,338.3162 80.4577,331.9235 80.4454,325.5307 80.433,319.138 80.4206,312.7452 80.4082,306.3525 80.3959,299.9598 80.3835,293.567 80.3711,287.1743 80.3588,280.7815 80.3464,274.3888 80.334,267.996 80.3216,261.6033 80.3093,255.2106 80.2969,248.8178 80.2845,242.4251 80.2722,236.0323 80.2598,229.6396 80.2474,223.2468 80.2351,216.8541 80.2227,210.4614 80.2103,204.0686 80.1979,197.6759 80.1856,191.2831 80.1732,184.8904 80.1608,178.4976 80.1485,172.1049 80.1361,165.7122 80.1237,159.3194 80.1113,152.9267 80.099,146.5339 80.0866,140.1412 80.0742,133.7485 80.0619,127.3557 80.0495,120.963 80.0371,114.5702 80.0247,108.1775 80.0124,101.7847 80,95.392 83.44,90.496 86.88,85.6 90.32,80.704" fill="#e2e8f0" stroke="#334155" stroke-width="1"/>
<line x1="239.8013" y1="80.1711" x2="240.5366" y2="720.5969" stroke="#dc2626" stroke-width="1.5" stroke-dasharray="6 3"/>
<polyline points="399.1252,87.9882 399.156,103.9882 399.1867,119.9881 399.2175,135.9881 399.2483,151.9881 399.279,167.9881 399.3098,183.988 399.3406,199.988 399.3713,215.988 399.4021,231.988 399.4329,247.9879 399.4637,263.9879 399.4944,279.9879 399.5252,295.9879 399.556,311.9878 399.5867,327.9878 399.6175,343.9878 399.6483,359.9878 399.679,375.9878 399.7098,391.9877 399.7406,407.9877 399.7713,423.9877 399.8021,439.9877 399.8329,455.9876 399.8636,471.9876 399.8944,487.9876 399.9252,503.9876 399.9559,519.9875 399.9867,535.9875 400.0175,551.9875 400.0482,567.9875 400.079,583.9874 400.1098,599.9874 400.1405,615.9874 400.1713,631.9874 400.2021,647.9873 400.2328,663.9873 400.2636,679.9873 400.2944,695.9873 398.9441,711.9888" fill="none" stroke="#16a34a" stroke-width="1"/>
<polyline points="84.9486,88.3489 80.0173,104.3546 80.0483,120.3546 80.0793,136.3545 80.1102,152.3545 80.1412,168.3545 80.1722,184.3545 80.2031,200.3544 80.2341,216.3544 80.265,232.3544 80.296,248.3544 80.327,264.3543 80.3579,280.3543 80.3889,296.3543 80.4199,312.3543 80.4508,328.3542 80.4818,344.3542 80.5128,360.3542 80.5437,376.3542 80.5747,392.3541 80.6056,408.3541 80.6366,424.3541 80.6676,440.3541 80.6985,456.354 80.7295,472.354 80.7605,488.354 80.7914,504.354 80.8224,520.3539 80.8533,536.3539 80.8843,552.3539 80.9153,568.3539 80.9462,584.3538 80.9772,600.3538 81.0082,616.3538 81.0391,632.3538 81.0701,648.3537 81.101,664.3537 81.132,680.3537 81.163,696.3537 81.1939,712.3536" fill="none" stroke="#2563eb" stroke-width="1"/>
<polyline points="399.1252,87.9882 84.9486,88.3489 399.156,103.9882 80.0173,104.3546 399.1867,119.9881 80.0483,120.3546 399.2175,135.9881 80.0793,136.3545 399.2483,151.9881 80.1102,152.3545 399.279,167.9881 80.1412,168.3545 399.3098,183.988 80.1722,184.3545 399.3406,199.988 80.2031,200.3544 399.3713,215.988 80.2341,216.3544 399.4021,231.988 80.265,232.3544 399.4329,247.9879 80.296,248.3544 399.4637,263.9879 80.327,264.3543 399.4944,279.9879 80.3579,280.3543 399.5252,295.9879 80.3889,296.3543 399.556,311.9878 80.4199,312.3543 399.5867,327.9878 80.4508,328.3542 399.6175,343.9878 80.4818,344.3542 399.6483,359.9878 80.5128,360.3542 399.679,375.9878 80.5437,376.3542 399.7098,391.9877 80.5747,392.3541 399.7406,407.9877 80.6056,408.3541 399.7713,423.9877 80.6366,424.3541 399.8021,439.9877 80.6676,440.3541 399.8329,455.9876 80.6985,456.354 399.8636,471.9876 80.7295,472.354 399.8944,487.9876 80.7605,488.354 399.9252,503.9876 80.7914,504.354 399.9559,519.9875 80.8224,520.3539 399.9867,535.9875 80.8533,536.3539 400.0175,551.9875 80.8843,552.3539 400.0482,567.9875 80.9153,568.3539 400.079,583.9874 80.9462,584.3538 400.1098,599.9874 80.9772,600.3538 400.1405,615.9874 81.0082,616.3538 400.1713,631.9874 81.0391,632.3538 400.2021,647.9873 81.0701,648.3537 400.2328,663.9873 81.101,664.3537 400.2636,679.9873 81.132,680.3537 400.2944,695.9873 81.163,696.3537 398.9441,711.9888 81.1939,712.3536" fill="none" stroke="#7c3aed" stroke-width="0.8" opacity="0.85"/>
<circle cx="242.0369" cy="88.1686" r="1.5" fill="#f59e0b"/><circle cx="239.5867" cy="104.1714" r="1.5" fill="#f59e0b"/><circle cx="239.6175" cy="120.1714" r="1.5" fill="#f59e0b"/><circle cx="239.6484" cy="136.1713" r="1.5" fill="#f59e0b"/><circle cx="239.6793" cy="152.1713" r="1.5" fill="#f59e0b"/><circle cx="239.7101" cy="168.1713" r="1.5" fill="#f59e0b"/><circle cx="239.741" cy="184.1713" r="1.5" fill="#f59e0b"/><circle cx="239.7719" cy="200.1712" r="1.5" fill="#f59e0b"/><circle cx="239.8027" cy="216.1712" r="1.5" fill="#f59e0b"/><circle cx="239.8336" cy="232.1712" r="1.5" fill="#f59e0b"/><circle cx="239.8644" cy="248.1712" r="1.5" fill="#f59e0b"/><circle cx="239.8953" cy="264.1711" r="1.5" fill="#f59e0b"/><circle cx="239.9262" cy="280.1711" r="1.5" fill="#f59e0b"/><circle cx="239.957" cy="296.1711" r="1.5" fill="#f59e0b"/><circle cx="239.9879" cy="312.1711" r="1.5" fill="#f59e0b"/><circle cx="240.0188" cy="328.171" r="1.5" fill="#f59e0b"/><circle cx="240.0496" cy="344.171" r="1.5" fill="#f59e0b"/><circle cx="240.0805" cy="360.171" r="1.5" fill="#f59e0b"/><circle cx="240.1114" cy="376.171" r="1.5" fill="#f59e0b"/><circle cx="240.1422" cy="392.1709" r="1.5" fill="#f59e0b"/><circle cx="240.1731" cy="408.1709" r="1.5" fill="#f59e0b"/><circle cx="240.204" cy="424.1709" r="1.5" fill="#f59e0b"/><circle cx="240.2348" cy="440.1709" r="1.5" fill="#f59e0b"/><circle cx="240.2657" cy="456.1708" r="1.5" fill="#f59e0b"/><circle cx="240.2966" cy="472.1708" r="1.5" fill="#f59e0b"/><circle cx="240.3274" cy="488.1708" r="1.5" fill="#f59e0b"/><circle cx="240.3583" cy="504.1708" r="1.5" fill="#f59e0b"/><circle cx="240.3892" cy="520.1707" r="1.5" fill="#f59e0b"/><circle cx="240.42" cy="536.1707" r="1.5" fill="#f59e0b"/><circle cx="240.4509" cy="552.1707" r="1.5" fill="#f59e0b"/><circle cx="240.4818" cy="568.1707" r="1.5" fill="#f59e0b"/><circle cx="240.5126" cy="584.1706" r="1.5" fill="#f59e0b"/><circle cx="240.5435" cy="600.1706" r="1.5" fill="#f59e0b"/><circle cx="240.5743" cy="616.1706" r="1.5" fill="#f59e0b"/><circle cx="240.6052" cy="632.1706" r="1.5" fill="#f59e0b"/><circle cx="240.6361" cy="648.1705" r="1.5" fill="#f59e0b"/><circle cx="240.6669" cy="664.1705" r="1.5" fill="#f59e0b"/><circle cx="240.6978" cy="680.1705" r="1.5" fill="#f59e0b"/><circle cx="240.7287" cy="696.1705" r="1.5" fill="#f59e0b"/><circle cx="240.069" cy="712.1712" r="1.5" fill="#f59e0b"/>
<circle cx="399.1252" cy="87.9882" r="1.2" fill="#22c55e"/><circle cx="84.9486" cy="88.3489" r="1.2" fill="#3b82f6"/><circle cx="399.156" cy="103.9882" r="1.2" fill="#22c55e"/><circle cx="80.0173" cy="104.3546" r="1.2" fill="#3b82f6"/><circle cx="399.1867" cy="119.9881" r="1.2" fill="#22c55e"/><circle cx="80.0483" cy="120.3546" r="1.2" fill="#3b82f6"/><circle cx="399.2175" cy="135.9881" r="1.2" fill="#22c55e"/><circle cx="80.0793" cy="136.3545" r="1.2" fill="#3b82f6"/><circle cx="399.2483" cy="151.9881" r="1.2" fill="#22c55e"/><circle cx="80.1102" cy="152.3545" r="1.2" fill="#3b82f6"/><circle cx="399.279" cy="167.9881" r="1.2" fill="#22c55e"/><circle cx="80.1412" cy="168.3545" r="1.2" fill="#3b82f6"/><circle cx="399.3098" cy="183.988" r="1.2" fill="#22c55e"/><circle cx="80.1722" cy="184.3545" r="1.2" fill="#3b82f6"/><circle cx="399.3406" cy="199.988" r="1.2" fill="#22c55e"/><circle cx="80.2031" cy="200.3544" r="1.2" fill="#3b82f6"/><circle cx="399.3713" cy="215.988" r="1.2" fill="#22c55e"/><circle cx="80.2341" cy="216.3544" r="1.2" fill="#3b82f6"/><circle cx="399.4021" cy="231.988" r="1.2" fill="#22c55e"/><circle cx="80.265" cy="232.3544" r="1.2" fill="#3b82f6"/><circle cx="399.4329" cy="247.9879" r="1.2" fill="#22c55e"/><circle cx="80.296" cy="248.3544" r="1.2" fill="#3b82f6"/><circle cx="399.4637" cy="263.9879" r="1.2" fill="#22c55e"/><circle cx="80.327" cy="264.3543" r="1.2" fill="#3b82f6"/><circle cx="399.4944" cy="279.9879" r="1.2" fill="#22c55e"/><circle cx="80.3579" cy="280.3543" r="1.2" fill="#3b82f6"/><circle cx="399.5252" cy="295.9879" r="1.2" fill="#22c55e"/><circle cx="80.3889" cy="296.3543" r="1.2" fill="#3b82f6"/><circle cx="399.556" cy="311.9878" r="1.2" fill="#22c55e"/><circle cx="80.4199" cy="312.3543" r="1.2" fill="#3b82f6"/><circle cx="399.5867" cy="327.9878" r="1.2" fill="#22c55e"/><circle cx="80.4508" cy="328.3542" r="1.2" fill="#3b82f6"/><circle cx="399.6175" cy="343.9878" r="1.2" fill="#22c55e"/><circle cx="80.4818" cy="344.3542" r="1.2" fill="#3b82f6"/><circle cx="399.6483" cy="359.9878" r="1.2" fill="#22c55e"/><circle cx="80.5128" cy="360.3542" r="1.2" fill="#3b82f6"/><circle cx="399.679" cy="375.9878" r="1.2" fill="#22c55e"/><circle cx="80.5437" cy="376.3542" r="1.2" fill="#3b82f6"/><circle cx="399.7098" cy="391.9877" r="1.2" fill="#22c55e"/><circle cx="80.5747" cy="392.3541" r="1.2" fill="#3b82f6"/><circle cx="399.7406" cy="407.9877" r="1.2" fill="#22c55e"/><circle cx="80.6056" cy="408.3541" r="1.2" fill="#3b82f6"/><circle cx="399.7713" cy="423.9877" r="1.2" fill="#22c55e"/><circle cx="80.6366" cy="424.3541" r="1.2" fill="#3b82f6"/><circle cx="399.8021" cy="439.9877" r="1.2" fill="#22c55e"/><circle cx="80.6676" cy="440.3541" r="1.2" fill="#3b82f6"/><circle cx="399.8329" cy="455.9876" r="1.2" fill="#22c55e"/><circle cx="80.6985" cy="456.354" r="1.2" fill="#3b82f6"/><circle cx="399.8636" cy="471.9876" r="1.2" fill="#22c55e"/><circle cx="80.7295" cy="472.354" r="1.2" fill="#3b82f6"/><circle cx="399.8944" cy="487.9876" r="1.2" fill="#22c55e"/><circle cx="80.7605" cy="488.354" r="1.2" fill="#3b82f6"/><circle cx="399.9252" cy="503.9876" r="1.2" fill="#22c55e"/><circle cx="80.7914" cy="504.354" r="1.2" fill="#3b82f6"/><circle cx="399.9559" cy="519.9875" r="1.2" fill="#22c55e"/><circle cx="80.8224" cy="520.3539" r="1.2" fill="#3b82f6"/><circle cx="399.9867" cy="535.9875" r="1.2" fill="#22c55e"/><circle cx="80.8533" cy="536.3539" r="1.2" fill="#3b82f6"/><circle cx="400.0175" cy="551.9875" r="1.2" fill="#22c55e"/><circle cx="80.8843" cy="552.3539" r="1.2" fill="#3b82f6"/><circle cx="400.0482" cy="567.9875" r="1.2" fill="#22c55e"/><circle cx="80.9153" cy="568.3539" r="1.2" fill="#3b82f6"/><circle cx="400.079" cy="583.9874" r="1.2" fill="#22c55e"/><circle cx="80.9462" cy="584.3538" r="1.2" fill="#3b82f6"/><circle cx="400.1098" cy="599.9874" r="1.2" fill="#22c55e"/><circle cx="80.9772" cy="600.3538" r="1.2" fill="#3b82f6"/><circle cx="400.1405" cy="615.9874" r="1.2" fill="#22c55e"/><circle cx="81.0082" cy="616.3538" r="1.2" fill="#3b82f6"/><circle cx="400.1713" cy="631.9874" r="1.2" fill="#22c55e"/><circle cx="81.0391" cy="632.3538" r="1.2" fill="#3b82f6"/><circle cx="400.2021" cy="647.9873" r="1.2" fill="#22c55e"/><circle cx="81.0701" cy="648.3537" r="1.2" fill="#3b82f6"/><circle cx="400.2328" cy="663.9873" r="1.2" fill="#22c55e"/><circle cx="81.101" cy="664.3537" r="1.2" fill="#3b82f6"/><circle cx="400.2636" cy="679.9873" r="1.2" fill="#22c55e"/><circle cx="81.132" cy="680.3537" r="1.2" fill="#3b82f6"/><circle cx="400.2944" cy="695.9873" r="1.2" fill="#22c55e"/><circle cx="81.163" cy="696.3537" r="1.2" fill="#3b82f6"/><circle cx="398.9441" cy="711.9888" r="1.2" fill="#22c55e"/><circle cx="81.1939" cy="712.3536" r="1.2" fill="#3b82f6"/>
</g>
<text x="8" y="16" font-size="11" font-family="monospace" fill="#111">HATCH-A-WIDTHS-A8 · r_zr65703</text><text x="8" y="30" font-size="11" font-family="monospace" fill="#111">spacingMm 0.4 · meanWidthMm 7.974 · maxStitchMm 7.989</text><text x="8" y="44" font-size="11" font-family="monospace" fill="#111">eligibility eligible · splitRequired false · scale: 1 mm = 40 px</text>
<line x1="8" y1="846.768" x2="408" y2="846.768" stroke="#111" stroke-width="2"/><text x="8" y="860.768" font-size="10" font-family="monospace" fill="#111">10 mm</text>
</svg>